{
  "name": "Indie Rock 140BPM",
  "description": "Garage feel, Plymouth Kit drums, 16th hi-hats with counter-tempo cut, panned guitars, bass on ch1",
  "tempo": 140,
  "tracks": [
    {
      "type": "midi",
      "name": "\ud83e\udd41 Drums",
      "devices": [
        {"uri": "query:AudioFx#Drum%20Buss", "device_index": 1, "params": {"Drive": 0.8, "Crunch": 0.4}},
        {"uri": "query:AudioFx#Saturator", "device_index": 2, "params": {"Drive": 0.75, "Dry/Wet": 0.3}},
        {"uri": "query:AudioFx#Reverb", "device_index": 3, "params": {"Decay Time": 0.15, "Room Size": 0.2, "Dry/Wet": 0.25}},
        {"uri": "query:AudioFx#EQ%20Eight", "device_index": 4, "params": {"3 Gain A": 2.0, "4 Gain A": 3.0, "6 Gain A": 3.0, "7 Gain A": 4.0}}
      ],
      "volume": 0.95,
      "clips": [
        {
          "index": 0,
          "length": 16.0,
          "notes": [
            {"pitch":36,"start_time":0.0,"duration":0.25,"velocity":120,"mute":false},
            {"pitch":36,"start_time":0.75,"duration":0.25,"velocity":75,"mute":false},
            {"pitch":36,"start_time":2.0,"duration":0.25,"velocity":115,"mute":false},
            {"pitch":36,"start_time":2.75,"duration":0.25,"velocity":70,"mute":false},
            {"pitch":36,"start_time":4.0,"duration":0.25,"velocity":120,"mute":false},
            {"pitch":36,"start_time":4.5,"duration":0.25,"velocity":85,"mute":false},
            {"pitch":36,"start_time":6.0,"duration":0.25,"velocity":110,"mute":false},
            {"pitch":36,"start_time":7.0,"duration":0.25,"velocity":90,"mute":false},
            {"pitch":36,"start_time":7.5,"duration":0.25,"velocity":100,"mute":false},
            {"pitch":38,"start_time":1.0,"duration":0.25,"velocity":120,"mute":false},
            {"pitch":38,"start_time":1.75,"duration":0.25,"velocity":55,"mute":false},
            {"pitch":38,"start_time":3.0,"duration":0.25,"velocity":125,"mute":false},
            {"pitch":38,"start_time":3.5,"duration":0.25,"velocity":50,"mute":false},
            {"pitch":38,"start_time":5.0,"duration":0.25,"velocity":120,"mute":false},
            {"pitch":38,"start_time":5.75,"duration":0.25,"velocity":60,"mute":false},
            {"pitch":38,"start_time":7.0,"duration":0.25,"velocity":127,"mute":false},
            {"pitch":42,"start_time":0.0,"duration":0.15,"velocity":127,"mute":false},
            {"pitch":42,"start_time":0.25,"duration":0.15,"velocity":75,"mute":false},
            {"pitch":42,"start_time":0.5,"duration":0.15,"velocity":105,"mute":false},
            {"pitch":42,"start_time":0.75,"duration":0.15,"velocity":67,"mute":false},
            {"pitch":42,"start_time":1.0,"duration":0.15,"velocity":120,"mute":false},
            {"pitch":42,"start_time":1.25,"duration":0.15,"velocity":72,"mute":false},
            {"pitch":42,"start_time":1.5,"duration":0.15,"velocity":108,"mute":false},
            {"pitch":42,"start_time":1.75,"duration":0.15,"velocity":63,"mute":false},
            {"pitch":42,"start_time":2.0,"duration":0.15,"velocity":127,"mute":false},
            {"pitch":42,"start_time":2.25,"duration":0.15,"velocity":75,"mute":false},
            {"pitch":42,"start_time":2.5,"duration":0.15,"velocity":102,"mute":false},
            {"pitch":42,"start_time":2.75,"duration":0.15,"velocity":67,"mute":false},
            {"pitch":42,"start_time":3.0,"duration":0.15,"velocity":123,"mute":false},
            {"pitch":42,"start_time":3.25,"duration":0.15,"velocity":72,"mute":false},
            {"pitch":42,"start_time":3.5,"duration":0.15,"velocity":105,"mute":false},
            {"pitch":42,"start_time":3.75,"duration":0.15,"velocity":66,"mute":false},
            {"pitch":42,"start_time":4.0,"duration":0.15,"velocity":127,"mute":false},
            {"pitch":42,"start_time":4.25,"duration":0.15,"velocity":78,"mute":false},
            {"pitch":42,"start_time":4.5,"duration":0.15,"velocity":108,"mute":false},
            {"pitch":42,"start_time":4.75,"duration":0.15,"velocity":69,"mute":false},
            {"pitch":42,"start_time":5.0,"duration":0.15,"velocity":123,"mute":false},
            {"pitch":42,"start_time":5.25,"duration":0.15,"velocity":75,"mute":false},
            {"pitch":42,"start_time":5.5,"duration":0.15,"velocity":102,"mute":false},
            {"pitch":42,"start_time":5.75,"duration":0.15,"velocity":66,"mute":false},
            {"pitch":42,"start_time":6.0,"duration":0.15,"velocity":127,"mute":false},
            {"pitch":42,"start_time":6.25,"duration":0.15,"velocity":78,"mute":false},
            {"pitch":42,"start_time":6.5,"duration":0.15,"velocity":105,"mute":false},
            {"pitch":42,"start_time":6.75,"duration":0.15,"velocity":69,"mute":false},
            {"pitch":42,"start_time":7.0,"duration":0.15,"velocity":117,"mute":false},
            {"pitch":42,"start_time":7.25,"duration":0.15,"velocity":72,"mute":false},
            {"pitch":42,"start_time":7.5,"duration":0.15,"velocity":108,"mute":false},
            {"pitch":42,"start_time":7.75,"duration":0.15,"velocity":66,"mute":false},
            {"pitch":46,"start_time":1.5,"duration":0.3,"velocity":127,"mute":false},
            {"pitch":46,"start_time":3.5,"duration":0.3,"velocity":127,"mute":false},
            {"pitch":46,"start_time":5.5,"duration":0.3,"velocity":127,"mute":false},
            {"pitch":46,"start_time":7.5,"duration":0.3,"velocity":127,"mute":false},
            {"pitch":49,"start_time":0.0,"duration":0.5,"velocity":110,"mute":false},
            {"pitch":36,"start_time":8.5,"duration":0.25,"velocity":120,"mute":false},
            {"pitch":38,"start_time":9.0,"duration":0.25,"velocity":110,"mute":false},
            {"pitch":36,"start_time":9.5,"duration":0.25,"velocity":115,"mute":false},
            {"pitch":38,"start_time":10.5,"duration":0.25,"velocity":120,"mute":false},
            {"pitch":36,"start_time":11.0,"duration":0.25,"velocity":110,"mute":false},
            {"pitch":38,"start_time":11.5,"duration":0.25,"velocity":127,"mute":false},
            {"pitch":42,"start_time":8.0,"duration":0.15,"velocity":60,"mute":false},
            {"pitch":42,"start_time":9.0,"duration":0.15,"velocity":55,"mute":false},
            {"pitch":42,"start_time":10.0,"duration":0.15,"velocity":60,"mute":false},
            {"pitch":42,"start_time":11.0,"duration":0.15,"velocity":55,"mute":false},
            {"pitch":36,"start_time":12.0,"duration":0.25,"velocity":120,"mute":false},
            {"pitch":38,"start_time":13.0,"duration":0.25,"velocity":120,"mute":false},
            {"pitch":36,"start_time":14.0,"duration":0.25,"velocity":110,"mute":false},
            {"pitch":42,"start_time":12.0,"duration":0.15,"velocity":90,"mute":false},
            {"pitch":42,"start_time":12.5,"duration":0.15,"velocity":70,"mute":false},
            {"pitch":42,"start_time":13.0,"duration":0.15,"velocity":90,"mute":false},
            {"pitch":42,"start_time":13.5,"duration":0.15,"velocity":70,"mute":false},
            {"pitch":38,"start_time":14.0,"duration":0.15,"velocity":80,"mute":false},
            {"pitch":38,"start_time":14.25,"duration":0.15,"velocity":85,"mute":false},
            {"pitch":38,"start_time":14.5,"duration":0.15,"velocity":90,"mute":false},
            {"pitch":38,"start_time":14.75,"duration":0.15,"velocity":95,"mute":false},
            {"pitch":38,"start_time":15.0,"duration":0.15,"velocity":100,"mute":false},
            {"pitch":38,"start_time":15.25,"duration":0.15,"velocity":110,"mute":false},
            {"pitch":38,"start_time":15.5,"duration":0.15,"velocity":120,"mute":false},
            {"pitch":38,"start_time":15.75,"duration":0.15,"velocity":127,"mute":false},
            {"pitch":49,"start_time":15.75,"duration":0.5,"velocity":115,"mute":false}
          ]
        }
      ]
    },
    {
      "type": "audio",
      "name": "\ud83c\udfb8 Guitar L",
      "devices": [
        {"uri": "query:AudioFx#Tuner"},
        {"uri": "query:AudioFx#Gate", "device_index": 1, "params": {"Threshold": 0.3}},
        {"uri": "query:AudioFx#EQ%20Eight", "device_index": 2, "params": {"3 Gain A": 4.0, "4 Gain A": 5.0, "5 Gain A": 4.0, "6 Gain A": 3.0, "7 Gain A": 2.0}},
        {"uri": "query:AudioFx#Compressor", "device_index": 3, "params": {"Output Gain": 18.0}},
        {"uri": "query:AudioFx#Utility", "device_index": 4, "params": {"Gain": 0.85}},
        {"uri": "query:AudioFx#Chorus-Ensemble", "device_index": 5, "params": {"Dry/Wet": 0.25}},
        {"uri": "query:AudioFx#Reverb", "device_index": 6, "params": {"Dry/Wet": 0.2, "Decay Time": 0.35}}
      ],
      "input_routing": {"type": "Ext. In", "channel": 2},
      "volume": 1.0,
      "panning": -1.0
    },
    {
      "type": "audio",
      "name": "\ud83c\udfb8 Guitar R",
      "devices": [
        {"uri": "query:AudioFx#Tuner"},
        {"uri": "query:AudioFx#Gate", "device_index": 1, "params": {"Threshold": 0.3}},
        {"uri": "query:AudioFx#EQ%20Eight", "device_index": 2, "params": {"2 Gain A": -4.0, "3 Gain A": -3.0, "5 Gain A": 5.0, "6 Gain A": 4.0, "7 Gain A": 6.0}},
        {"uri": "query:AudioFx#Saturator", "device_index": 3, "params": {"Drive": 0.55, "Dry/Wet": 0.5}},
        {"uri": "query:AudioFx#Compressor", "device_index": 4, "params": {"Output Gain": 18.0}},
        {"uri": "query:AudioFx#Utility", "device_index": 5, "params": {"Gain": 0.85}},
        {"uri": "query:AudioFx#Echo", "device_index": 6, "params": {"Dry Wet": 0.2, "Feedback": 0.25}},
        {"uri": "query:AudioFx#Reverb", "device_index": 7, "params": {"Dry/Wet": 0.25}},
        {"uri": "query:AudioFx#Chorus-Ensemble", "device_index": 8, "params": {"Dry/Wet": 0.5}}
      ],
      "input_routing": {"type": "Ext. In", "channel": 2},
      "volume": 1.0,
      "panning": 1.0
    },
    {
      "type": "audio",
      "name": "\ud83c\udfb5 Bass",
      "devices": [
        {"uri": "query:AudioFx#Tuner"},
        {"uri": "query:AudioFx#EQ%20Eight", "device_index": 1, "params": {"1 Gain A": 2.0, "2 Gain A": 1.5, "3 Gain A": -3.0, "5 Gain A": 1.5, "7 Gain A": -5.0}},
        {"uri": "query:AudioFx#Compressor", "device_index": 2, "params": {"Threshold": 0.35, "Ratio": 0.7, "Output Gain": 6.0}}
      ],
      "input_routing": {"type": "Ext. In", "channel": 1},
      "volume": 0.85
    }
  ],
  "arm_tracks": [1, 2, 3],
  "note": "Plymouth Kit must be loaded manually (Drums > Drum Rack > Acoustic > Plymouth Kit). 909 is fallback.",
  "autoplay_clip": {"track": 0, "clip": 0}
}
